<svg id="visual" viewBox="0 0 900 600" width="900" height="600" xmlns="http://www.w3.org/2000/svg" xmlns:xlink="http://www.w3.org/1999/xlink" version="1.1"><rect x="0" y="0" width="900" height="600" fill="#001220"></rect><defs><linearGradient id="grad1_0" x1="33.3%" y1="100%" x2="100%" y2="0%"><stop offset="20%" stop-color="#001220" stop-opacity="1"></stop><stop offset="80%" stop-color="#001220" stop-opacity="1"></stop></linearGradient></defs><defs><linearGradient id="grad2_0" x1="0%" y1="100%" x2="66.7%" y2="0%"><stop offset="20%" stop-color="#001220" stop-opacity="1"></stop><stop offset="80%" stop-color="#001220" stop-opacity="1"></stop></linearGradient></defs><g transform="translate(900, 600)"><path d="M-459.7 0C-420 -45.2 -380.4 -90.4 -364.9 -151.2C-349.5 -211.9 -358.3 -288.2 -325.1 -325.1C-291.8 -361.9 -216.6 -359.2 -155.4 -375.1C-94.2 -391 -47.1 -425.3 0 -459.7L0 0Z" fill="#E62020"></path></g><g transform="translate(0, 0)"><path d="M459.7 0C412.1 41.9 364.5 83.7 350.2 145C335.8 206.4 354.8 287.2 325.1 325.1C295.3 363 216.9 358 154.6 373.2C92.3 388.5 46.2 424.1 0 459.7L0 0Z" fill="#E62020"></path></g></svg>