<svg id="visual" viewBox="0 0 540 960" width="540" height="960" xmlns="http://www.w3.org/2000/svg" xmlns:xlink="http://www.w3.org/1999/xlink" version="1.1"><rect x="0" y="0" width="540" height="960" fill="#001220"></rect><defs><linearGradient id="grad1_0" x1="0%" y1="100%" x2="100%" y2="0%"><stop offset="30%" stop-color="#001220" stop-opacity="1"></stop><stop offset="70%" stop-color="#001220" stop-opacity="1"></stop></linearGradient></defs><defs><linearGradient id="grad2_0" x1="0%" y1="100%" x2="100%" y2="0%"><stop offset="30%" stop-color="#001220" stop-opacity="1"></stop><stop offset="70%" stop-color="#001220" stop-opacity="1"></stop></linearGradient></defs><g transform="translate(540, 960)"><path d="M-297 0C-277.3 -31.8 -257.6 -63.6 -246.7 -102.2C-235.8 -140.8 -233.8 -186.3 -210 -210C-186.3 -233.8 -140.8 -235.8 -102.2 -246.7C-63.6 -257.6 -31.8 -277.3 0 -297L0 0Z" fill="#E62020"></path></g><g transform="translate(0, 0)"><path d="M297 0C277 32.7 257 65.3 244.8 101.4C232.7 137.5 228.3 177 207.9 207.9C187.5 238.8 151 261 113.7 274.4C76.3 287.8 38.2 292.4 0 297L0 0Z" fill="#E62020"></path></g></svg>